<mxfile host="app.diagrams.net" agent="Mozilla/5.0 (X11; Linux x86_64; rv:138.0) Gecko/20100101 Firefox/138.0" version="26.3.0">
  <diagram id="C5RBs43oDa-KdzZeNtuy" name="Page-1">
    <mxGraphModel dx="4959" dy="3483" grid="1" gridSize="10" guides="1" tooltips="1" connect="1" arrows="1" fold="1" page="1" pageScale="1" pageWidth="827" pageHeight="1169" math="0" shadow="0">
      <root>
        <mxCell id="WIyWlLk6GJQsqaUBKTNV-0" />
        <mxCell id="WIyWlLk6GJQsqaUBKTNV-1" parent="WIyWlLk6GJQsqaUBKTNV-0" />
        <mxCell id="9XlbqfiHmrKlPF3pGGkw-6" value="Agent" style="swimlane;fontStyle=1;align=center;verticalAlign=top;childLayout=stackLayout;horizontal=1;startSize=26;horizontalStack=0;resizeParent=1;resizeParentMax=0;resizeLast=0;collapsible=1;marginBottom=0;whiteSpace=wrap;html=1;" vertex="1" parent="WIyWlLk6GJQsqaUBKTNV-1">
          <mxGeometry x="810" y="112" width="580" height="216" as="geometry" />
        </mxCell>
        <mxCell id="9XlbqfiHmrKlPF3pGGkw-7" value="&lt;div&gt;- system_description: str[]&lt;/div&gt;" style="text;strokeColor=none;fillColor=none;align=left;verticalAlign=top;spacingLeft=4;spacingRight=4;overflow=hidden;rotatable=0;points=[[0,0.5],[1,0.5]];portConstraint=eastwest;whiteSpace=wrap;html=1;" vertex="1" parent="9XlbqfiHmrKlPF3pGGkw-6">
          <mxGeometry y="26" width="580" height="26" as="geometry" />
        </mxCell>
        <mxCell id="9XlbqfiHmrKlPF3pGGkw-10" value="- db_provider: DBProvider" style="text;strokeColor=none;fillColor=none;align=left;verticalAlign=top;spacingLeft=4;spacingRight=4;overflow=hidden;rotatable=0;points=[[0,0.5],[1,0.5]];portConstraint=eastwest;whiteSpace=wrap;html=1;" vertex="1" parent="9XlbqfiHmrKlPF3pGGkw-6">
          <mxGeometry y="52" width="580" height="26" as="geometry" />
        </mxCell>
        <mxCell id="9XlbqfiHmrKlPF3pGGkw-12" value="- cache_commands: bool" style="text;strokeColor=none;fillColor=none;align=left;verticalAlign=top;spacingLeft=4;spacingRight=4;overflow=hidden;rotatable=0;points=[[0,0.5],[1,0.5]];portConstraint=eastwest;whiteSpace=wrap;html=1;" vertex="1" parent="9XlbqfiHmrKlPF3pGGkw-6">
          <mxGeometry y="78" width="580" height="26" as="geometry" />
        </mxCell>
        <mxCell id="9XlbqfiHmrKlPF3pGGkw-11" value="- commands: Command[]" style="text;strokeColor=none;fillColor=none;align=left;verticalAlign=top;spacingLeft=4;spacingRight=4;overflow=hidden;rotatable=0;points=[[0,0.5],[1,0.5]];portConstraint=eastwest;whiteSpace=wrap;html=1;" vertex="1" parent="9XlbqfiHmrKlPF3pGGkw-6">
          <mxGeometry y="104" width="580" height="26" as="geometry" />
        </mxCell>
        <mxCell id="9XlbqfiHmrKlPF3pGGkw-8" value="" style="line;strokeWidth=1;fillColor=none;align=left;verticalAlign=middle;spacingTop=-1;spacingLeft=3;spacingRight=3;rotatable=0;labelPosition=right;points=[];portConstraint=eastwest;strokeColor=inherit;" vertex="1" parent="9XlbqfiHmrKlPF3pGGkw-6">
          <mxGeometry y="130" width="580" height="8" as="geometry" />
        </mxCell>
        <mxCell id="9XlbqfiHmrKlPF3pGGkw-20" value="+ __init__(self, system_description: str[], db_provider: DBProvider, cache_commands: bool)" style="text;strokeColor=none;fillColor=none;align=left;verticalAlign=top;spacingLeft=4;spacingRight=4;overflow=hidden;rotatable=0;points=[[0,0.5],[1,0.5]];portConstraint=eastwest;whiteSpace=wrap;html=1;" vertex="1" parent="9XlbqfiHmrKlPF3pGGkw-6">
          <mxGeometry y="138" width="580" height="26" as="geometry" />
        </mxCell>
        <mxCell id="9XlbqfiHmrKlPF3pGGkw-9" value="+ command(self, name: str, description: str[])" style="text;strokeColor=none;fillColor=none;align=left;verticalAlign=top;spacingLeft=4;spacingRight=4;overflow=hidden;rotatable=0;points=[[0,0.5],[1,0.5]];portConstraint=eastwest;whiteSpace=wrap;html=1;" vertex="1" parent="9XlbqfiHmrKlPF3pGGkw-6">
          <mxGeometry y="164" width="580" height="26" as="geometry" />
        </mxCell>
        <mxCell id="9XlbqfiHmrKlPF3pGGkw-13" value="+ execute_command(self, command_name: str, arguments: dict)" style="text;strokeColor=none;fillColor=none;align=left;verticalAlign=top;spacingLeft=4;spacingRight=4;overflow=hidden;rotatable=0;points=[[0,0.5],[1,0.5]];portConstraint=eastwest;whiteSpace=wrap;html=1;" vertex="1" parent="9XlbqfiHmrKlPF3pGGkw-6">
          <mxGeometry y="190" width="580" height="26" as="geometry" />
        </mxCell>
        <mxCell id="9XlbqfiHmrKlPF3pGGkw-14" value="Chat" style="swimlane;fontStyle=1;align=center;verticalAlign=top;childLayout=stackLayout;horizontal=1;startSize=26;horizontalStack=0;resizeParent=1;resizeParentMax=0;resizeLast=0;collapsible=1;marginBottom=0;whiteSpace=wrap;html=1;" vertex="1" parent="WIyWlLk6GJQsqaUBKTNV-1">
          <mxGeometry x="1590" y="60" width="450" height="320" as="geometry" />
        </mxCell>
        <mxCell id="9XlbqfiHmrKlPF3pGGkw-15" value="- db_provider: DBProvider" style="text;strokeColor=none;fillColor=none;align=left;verticalAlign=top;spacingLeft=4;spacingRight=4;overflow=hidden;rotatable=0;points=[[0,0.5],[1,0.5]];portConstraint=eastwest;whiteSpace=wrap;html=1;" vertex="1" parent="9XlbqfiHmrKlPF3pGGkw-14">
          <mxGeometry y="26" width="450" height="26" as="geometry" />
        </mxCell>
        <mxCell id="9XlbqfiHmrKlPF3pGGkw-18" value="- agent: Agent" style="text;strokeColor=none;fillColor=none;align=left;verticalAlign=top;spacingLeft=4;spacingRight=4;overflow=hidden;rotatable=0;points=[[0,0.5],[1,0.5]];portConstraint=eastwest;whiteSpace=wrap;html=1;" vertex="1" parent="9XlbqfiHmrKlPF3pGGkw-14">
          <mxGeometry y="52" width="450" height="26" as="geometry" />
        </mxCell>
        <mxCell id="9XlbqfiHmrKlPF3pGGkw-19" value="- model: ChatModel" style="text;strokeColor=none;fillColor=none;align=left;verticalAlign=top;spacingLeft=4;spacingRight=4;overflow=hidden;rotatable=0;points=[[0,0.5],[1,0.5]];portConstraint=eastwest;whiteSpace=wrap;html=1;" vertex="1" parent="9XlbqfiHmrKlPF3pGGkw-14">
          <mxGeometry y="78" width="450" height="26" as="geometry" />
        </mxCell>
        <mxCell id="9XlbqfiHmrKlPF3pGGkw-147" value="- llm_provider: LLMProvider" style="text;strokeColor=none;fillColor=none;align=left;verticalAlign=top;spacingLeft=4;spacingRight=4;overflow=hidden;rotatable=0;points=[[0,0.5],[1,0.5]];portConstraint=eastwest;whiteSpace=wrap;html=1;" vertex="1" parent="9XlbqfiHmrKlPF3pGGkw-14">
          <mxGeometry y="104" width="450" height="26" as="geometry" />
        </mxCell>
        <mxCell id="9XlbqfiHmrKlPF3pGGkw-16" value="" style="line;strokeWidth=1;fillColor=none;align=left;verticalAlign=middle;spacingTop=-1;spacingLeft=3;spacingRight=3;rotatable=0;labelPosition=right;points=[];portConstraint=eastwest;strokeColor=inherit;" vertex="1" parent="9XlbqfiHmrKlPF3pGGkw-14">
          <mxGeometry y="130" width="450" height="8" as="geometry" />
        </mxCell>
        <mxCell id="9XlbqfiHmrKlPF3pGGkw-17" value="+ __init__(self,db_provider: DBProvider, agent: Agent, id: str)" style="text;strokeColor=none;fillColor=none;align=left;verticalAlign=top;spacingLeft=4;spacingRight=4;overflow=hidden;rotatable=0;points=[[0,0.5],[1,0.5]];portConstraint=eastwest;whiteSpace=wrap;html=1;" vertex="1" parent="9XlbqfiHmrKlPF3pGGkw-14">
          <mxGeometry y="138" width="450" height="26" as="geometry" />
        </mxCell>
        <mxCell id="9XlbqfiHmrKlPF3pGGkw-21" value="- _get_llm_provider_class(self, llm_type: LLMType)" style="text;strokeColor=none;fillColor=none;align=left;verticalAlign=top;spacingLeft=4;spacingRight=4;overflow=hidden;rotatable=0;points=[[0,0.5],[1,0.5]];portConstraint=eastwest;whiteSpace=wrap;html=1;" vertex="1" parent="9XlbqfiHmrKlPF3pGGkw-14">
          <mxGeometry y="164" width="450" height="26" as="geometry" />
        </mxCell>
        <mxCell id="9XlbqfiHmrKlPF3pGGkw-22" value="- _acquire_lock(self)" style="text;strokeColor=none;fillColor=none;align=left;verticalAlign=top;spacingLeft=4;spacingRight=4;overflow=hidden;rotatable=0;points=[[0,0.5],[1,0.5]];portConstraint=eastwest;whiteSpace=wrap;html=1;" vertex="1" parent="9XlbqfiHmrKlPF3pGGkw-14">
          <mxGeometry y="190" width="450" height="26" as="geometry" />
        </mxCell>
        <mxCell id="9XlbqfiHmrKlPF3pGGkw-23" value="- _release_lock(self)" style="text;strokeColor=none;fillColor=none;align=left;verticalAlign=top;spacingLeft=4;spacingRight=4;overflow=hidden;rotatable=0;points=[[0,0.5],[1,0.5]];portConstraint=eastwest;whiteSpace=wrap;html=1;" vertex="1" parent="9XlbqfiHmrKlPF3pGGkw-14">
          <mxGeometry y="216" width="450" height="26" as="geometry" />
        </mxCell>
        <mxCell id="9XlbqfiHmrKlPF3pGGkw-24" value="- _refresh_model(self)" style="text;strokeColor=none;fillColor=none;align=left;verticalAlign=top;spacingLeft=4;spacingRight=4;overflow=hidden;rotatable=0;points=[[0,0.5],[1,0.5]];portConstraint=eastwest;whiteSpace=wrap;html=1;" vertex="1" parent="9XlbqfiHmrKlPF3pGGkw-14">
          <mxGeometry y="242" width="450" height="26" as="geometry" />
        </mxCell>
        <mxCell id="9XlbqfiHmrKlPF3pGGkw-25" value="- _update_model(self)" style="text;strokeColor=none;fillColor=none;align=left;verticalAlign=top;spacingLeft=4;spacingRight=4;overflow=hidden;rotatable=0;points=[[0,0.5],[1,0.5]];portConstraint=eastwest;whiteSpace=wrap;html=1;" vertex="1" parent="9XlbqfiHmrKlPF3pGGkw-14">
          <mxGeometry y="268" width="450" height="26" as="geometry" />
        </mxCell>
        <mxCell id="9XlbqfiHmrKlPF3pGGkw-26" value="+ send_message(self, text: str)" style="text;strokeColor=none;fillColor=none;align=left;verticalAlign=top;spacingLeft=4;spacingRight=4;overflow=hidden;rotatable=0;points=[[0,0.5],[1,0.5]];portConstraint=eastwest;whiteSpace=wrap;html=1;" vertex="1" parent="9XlbqfiHmrKlPF3pGGkw-14">
          <mxGeometry y="294" width="450" height="26" as="geometry" />
        </mxCell>
        <mxCell id="9XlbqfiHmrKlPF3pGGkw-27" value="" style="endArrow=open;endFill=1;endSize=12;html=1;rounded=0;" edge="1" parent="WIyWlLk6GJQsqaUBKTNV-1" source="9XlbqfiHmrKlPF3pGGkw-14" target="9XlbqfiHmrKlPF3pGGkw-6">
          <mxGeometry width="160" relative="1" as="geometry">
            <mxPoint x="460" y="400" as="sourcePoint" />
            <mxPoint x="620" y="400" as="targetPoint" />
          </mxGeometry>
        </mxCell>
        <mxCell id="9XlbqfiHmrKlPF3pGGkw-28" value="Command" style="swimlane;fontStyle=1;align=center;verticalAlign=top;childLayout=stackLayout;horizontal=1;startSize=26;horizontalStack=0;resizeParent=1;resizeParentMax=0;resizeLast=0;collapsible=1;marginBottom=0;whiteSpace=wrap;html=1;" vertex="1" parent="WIyWlLk6GJQsqaUBKTNV-1">
          <mxGeometry x="490" y="151" width="160" height="138" as="geometry" />
        </mxCell>
        <mxCell id="9XlbqfiHmrKlPF3pGGkw-29" value="+ name: str" style="text;strokeColor=none;fillColor=none;align=left;verticalAlign=top;spacingLeft=4;spacingRight=4;overflow=hidden;rotatable=0;points=[[0,0.5],[1,0.5]];portConstraint=eastwest;whiteSpace=wrap;html=1;" vertex="1" parent="9XlbqfiHmrKlPF3pGGkw-28">
          <mxGeometry y="26" width="160" height="26" as="geometry" />
        </mxCell>
        <mxCell id="9XlbqfiHmrKlPF3pGGkw-32" value="+ description: str[]" style="text;strokeColor=none;fillColor=none;align=left;verticalAlign=top;spacingLeft=4;spacingRight=4;overflow=hidden;rotatable=0;points=[[0,0.5],[1,0.5]];portConstraint=eastwest;whiteSpace=wrap;html=1;" vertex="1" parent="9XlbqfiHmrKlPF3pGGkw-28">
          <mxGeometry y="52" width="160" height="26" as="geometry" />
        </mxCell>
        <mxCell id="9XlbqfiHmrKlPF3pGGkw-33" value="+ function: callable" style="text;strokeColor=none;fillColor=none;align=left;verticalAlign=top;spacingLeft=4;spacingRight=4;overflow=hidden;rotatable=0;points=[[0,0.5],[1,0.5]];portConstraint=eastwest;whiteSpace=wrap;html=1;" vertex="1" parent="9XlbqfiHmrKlPF3pGGkw-28">
          <mxGeometry y="78" width="160" height="26" as="geometry" />
        </mxCell>
        <mxCell id="9XlbqfiHmrKlPF3pGGkw-34" value="+ arguments: dict[str, str]" style="text;strokeColor=none;fillColor=none;align=left;verticalAlign=top;spacingLeft=4;spacingRight=4;overflow=hidden;rotatable=0;points=[[0,0.5],[1,0.5]];portConstraint=eastwest;whiteSpace=wrap;html=1;" vertex="1" parent="9XlbqfiHmrKlPF3pGGkw-28">
          <mxGeometry y="104" width="160" height="26" as="geometry" />
        </mxCell>
        <mxCell id="9XlbqfiHmrKlPF3pGGkw-30" value="" style="line;strokeWidth=1;fillColor=none;align=left;verticalAlign=middle;spacingTop=-1;spacingLeft=3;spacingRight=3;rotatable=0;labelPosition=right;points=[];portConstraint=eastwest;strokeColor=inherit;" vertex="1" parent="9XlbqfiHmrKlPF3pGGkw-28">
          <mxGeometry y="130" width="160" height="8" as="geometry" />
        </mxCell>
        <mxCell id="9XlbqfiHmrKlPF3pGGkw-35" value="" style="endArrow=open;endFill=1;endSize=12;html=1;rounded=0;" edge="1" parent="WIyWlLk6GJQsqaUBKTNV-1" source="9XlbqfiHmrKlPF3pGGkw-28" target="9XlbqfiHmrKlPF3pGGkw-6">
          <mxGeometry width="160" relative="1" as="geometry">
            <mxPoint x="1110" y="400" as="sourcePoint" />
            <mxPoint x="1110" y="338" as="targetPoint" />
          </mxGeometry>
        </mxCell>
        <mxCell id="9XlbqfiHmrKlPF3pGGkw-36" value="DBProvider" style="swimlane;fontStyle=1;align=center;verticalAlign=top;childLayout=stackLayout;horizontal=1;startSize=26;horizontalStack=0;resizeParent=1;resizeParentMax=0;resizeLast=0;collapsible=1;marginBottom=0;whiteSpace=wrap;html=1;" vertex="1" parent="WIyWlLk6GJQsqaUBKTNV-1">
          <mxGeometry x="10" y="530" width="1160" height="216" as="geometry" />
        </mxCell>
        <mxCell id="9XlbqfiHmrKlPF3pGGkw-37" value="+ chat: ChatModelProvider" style="text;strokeColor=none;fillColor=none;align=left;verticalAlign=top;spacingLeft=4;spacingRight=4;overflow=hidden;rotatable=0;points=[[0,0.5],[1,0.5]];portConstraint=eastwest;whiteSpace=wrap;html=1;" vertex="1" parent="9XlbqfiHmrKlPF3pGGkw-36">
          <mxGeometry y="26" width="1160" height="26" as="geometry" />
        </mxCell>
        <mxCell id="9XlbqfiHmrKlPF3pGGkw-40" value="+ lock: LockProvider" style="text;strokeColor=none;fillColor=none;align=left;verticalAlign=top;spacingLeft=4;spacingRight=4;overflow=hidden;rotatable=0;points=[[0,0.5],[1,0.5]];portConstraint=eastwest;whiteSpace=wrap;html=1;" vertex="1" parent="9XlbqfiHmrKlPF3pGGkw-36">
          <mxGeometry y="52" width="1160" height="26" as="geometry" />
        </mxCell>
        <mxCell id="9XlbqfiHmrKlPF3pGGkw-41" value="+ state: StateProvider" style="text;strokeColor=none;fillColor=none;align=left;verticalAlign=top;spacingLeft=4;spacingRight=4;overflow=hidden;rotatable=0;points=[[0,0.5],[1,0.5]];portConstraint=eastwest;whiteSpace=wrap;html=1;" vertex="1" parent="9XlbqfiHmrKlPF3pGGkw-36">
          <mxGeometry y="78" width="1160" height="26" as="geometry" />
        </mxCell>
        <mxCell id="9XlbqfiHmrKlPF3pGGkw-42" value="+ cache: CacheProvider" style="text;strokeColor=none;fillColor=none;align=left;verticalAlign=top;spacingLeft=4;spacingRight=4;overflow=hidden;rotatable=0;points=[[0,0.5],[1,0.5]];portConstraint=eastwest;whiteSpace=wrap;html=1;" vertex="1" parent="9XlbqfiHmrKlPF3pGGkw-36">
          <mxGeometry y="104" width="1160" height="26" as="geometry" />
        </mxCell>
        <mxCell id="9XlbqfiHmrKlPF3pGGkw-43" value="+ sample: SampleProvider" style="text;strokeColor=none;fillColor=none;align=left;verticalAlign=top;spacingLeft=4;spacingRight=4;overflow=hidden;rotatable=0;points=[[0,0.5],[1,0.5]];portConstraint=eastwest;whiteSpace=wrap;html=1;" vertex="1" parent="9XlbqfiHmrKlPF3pGGkw-36">
          <mxGeometry y="130" width="1160" height="26" as="geometry" />
        </mxCell>
        <mxCell id="9XlbqfiHmrKlPF3pGGkw-38" value="" style="line;strokeWidth=1;fillColor=none;align=left;verticalAlign=middle;spacingTop=-1;spacingLeft=3;spacingRight=3;rotatable=0;labelPosition=right;points=[];portConstraint=eastwest;strokeColor=inherit;" vertex="1" parent="9XlbqfiHmrKlPF3pGGkw-36">
          <mxGeometry y="156" width="1160" height="8" as="geometry" />
        </mxCell>
        <mxCell id="9XlbqfiHmrKlPF3pGGkw-39" value="+ __init__(self, chat_model_provider: ChatModelProvider, lock_provider: LockProvider, state_provider: StateProvider, cache_provider: CacheProvider, sample_provider: SampleProvider)" style="text;strokeColor=none;fillColor=none;align=left;verticalAlign=top;spacingLeft=4;spacingRight=4;overflow=hidden;rotatable=0;points=[[0,0.5],[1,0.5]];portConstraint=eastwest;whiteSpace=wrap;html=1;" vertex="1" parent="9XlbqfiHmrKlPF3pGGkw-36">
          <mxGeometry y="164" width="1160" height="26" as="geometry" />
        </mxCell>
        <mxCell id="9XlbqfiHmrKlPF3pGGkw-44" value="+ remove_chat(self, id: str)" style="text;strokeColor=none;fillColor=none;align=left;verticalAlign=top;spacingLeft=4;spacingRight=4;overflow=hidden;rotatable=0;points=[[0,0.5],[1,0.5]];portConstraint=eastwest;whiteSpace=wrap;html=1;" vertex="1" parent="9XlbqfiHmrKlPF3pGGkw-36">
          <mxGeometry y="190" width="1160" height="26" as="geometry" />
        </mxCell>
        <mxCell id="9XlbqfiHmrKlPF3pGGkw-45" value="ChatModelProvider" style="swimlane;fontStyle=1;align=center;verticalAlign=top;childLayout=stackLayout;horizontal=1;startSize=26;horizontalStack=0;resizeParent=1;resizeParentMax=0;resizeLast=0;collapsible=1;marginBottom=0;whiteSpace=wrap;html=1;" vertex="1" parent="WIyWlLk6GJQsqaUBKTNV-1">
          <mxGeometry x="-310" y="920" width="330" height="164" as="geometry" />
        </mxCell>
        <mxCell id="9XlbqfiHmrKlPF3pGGkw-47" value="" style="line;strokeWidth=1;fillColor=none;align=left;verticalAlign=middle;spacingTop=-1;spacingLeft=3;spacingRight=3;rotatable=0;labelPosition=right;points=[];portConstraint=eastwest;strokeColor=inherit;" vertex="1" parent="9XlbqfiHmrKlPF3pGGkw-45">
          <mxGeometry y="26" width="330" height="8" as="geometry" />
        </mxCell>
        <mxCell id="9XlbqfiHmrKlPF3pGGkw-48" value="+ get_chat_models(self)" style="text;strokeColor=none;fillColor=none;align=left;verticalAlign=top;spacingLeft=4;spacingRight=4;overflow=hidden;rotatable=0;points=[[0,0.5],[1,0.5]];portConstraint=eastwest;whiteSpace=wrap;html=1;" vertex="1" parent="9XlbqfiHmrKlPF3pGGkw-45">
          <mxGeometry y="34" width="330" height="26" as="geometry" />
        </mxCell>
        <mxCell id="9XlbqfiHmrKlPF3pGGkw-49" value="+ get_chat_model(self, id: str)" style="text;strokeColor=none;fillColor=none;align=left;verticalAlign=top;spacingLeft=4;spacingRight=4;overflow=hidden;rotatable=0;points=[[0,0.5],[1,0.5]];portConstraint=eastwest;whiteSpace=wrap;html=1;" vertex="1" parent="9XlbqfiHmrKlPF3pGGkw-45">
          <mxGeometry y="60" width="330" height="26" as="geometry" />
        </mxCell>
        <mxCell id="9XlbqfiHmrKlPF3pGGkw-50" value="+ create_chat_model(self, llm_type: LLMType)" style="text;strokeColor=none;fillColor=none;align=left;verticalAlign=top;spacingLeft=4;spacingRight=4;overflow=hidden;rotatable=0;points=[[0,0.5],[1,0.5]];portConstraint=eastwest;whiteSpace=wrap;html=1;" vertex="1" parent="9XlbqfiHmrKlPF3pGGkw-45">
          <mxGeometry y="86" width="330" height="26" as="geometry" />
        </mxCell>
        <mxCell id="9XlbqfiHmrKlPF3pGGkw-51" value="+ update_chat_model(self, id: str, chat_model: ChatModel)" style="text;strokeColor=none;fillColor=none;align=left;verticalAlign=top;spacingLeft=4;spacingRight=4;overflow=hidden;rotatable=0;points=[[0,0.5],[1,0.5]];portConstraint=eastwest;whiteSpace=wrap;html=1;" vertex="1" parent="9XlbqfiHmrKlPF3pGGkw-45">
          <mxGeometry y="112" width="330" height="26" as="geometry" />
        </mxCell>
        <mxCell id="9XlbqfiHmrKlPF3pGGkw-52" value="+ remove_chat_model(self, id: str)" style="text;strokeColor=none;fillColor=none;align=left;verticalAlign=top;spacingLeft=4;spacingRight=4;overflow=hidden;rotatable=0;points=[[0,0.5],[1,0.5]];portConstraint=eastwest;whiteSpace=wrap;html=1;" vertex="1" parent="9XlbqfiHmrKlPF3pGGkw-45">
          <mxGeometry y="138" width="330" height="26" as="geometry" />
        </mxCell>
        <mxCell id="9XlbqfiHmrKlPF3pGGkw-53" value="LockProvider" style="swimlane;fontStyle=1;align=center;verticalAlign=top;childLayout=stackLayout;horizontal=1;startSize=26;horizontalStack=0;resizeParent=1;resizeParentMax=0;resizeLast=0;collapsible=1;marginBottom=0;whiteSpace=wrap;html=1;" vertex="1" parent="WIyWlLk6GJQsqaUBKTNV-1">
          <mxGeometry x="60" y="920" width="160" height="86" as="geometry" />
        </mxCell>
        <mxCell id="9XlbqfiHmrKlPF3pGGkw-55" value="" style="line;strokeWidth=1;fillColor=none;align=left;verticalAlign=middle;spacingTop=-1;spacingLeft=3;spacingRight=3;rotatable=0;labelPosition=right;points=[];portConstraint=eastwest;strokeColor=inherit;" vertex="1" parent="9XlbqfiHmrKlPF3pGGkw-53">
          <mxGeometry y="26" width="160" height="8" as="geometry" />
        </mxCell>
        <mxCell id="9XlbqfiHmrKlPF3pGGkw-56" value="+ acquire(self, id: str)" style="text;strokeColor=none;fillColor=none;align=left;verticalAlign=top;spacingLeft=4;spacingRight=4;overflow=hidden;rotatable=0;points=[[0,0.5],[1,0.5]];portConstraint=eastwest;whiteSpace=wrap;html=1;" vertex="1" parent="9XlbqfiHmrKlPF3pGGkw-53">
          <mxGeometry y="34" width="160" height="26" as="geometry" />
        </mxCell>
        <mxCell id="9XlbqfiHmrKlPF3pGGkw-57" value="+ release(self, id: str)" style="text;strokeColor=none;fillColor=none;align=left;verticalAlign=top;spacingLeft=4;spacingRight=4;overflow=hidden;rotatable=0;points=[[0,0.5],[1,0.5]];portConstraint=eastwest;whiteSpace=wrap;html=1;" vertex="1" parent="9XlbqfiHmrKlPF3pGGkw-53">
          <mxGeometry y="60" width="160" height="26" as="geometry" />
        </mxCell>
        <mxCell id="9XlbqfiHmrKlPF3pGGkw-58" value="StateProvider" style="swimlane;fontStyle=1;align=center;verticalAlign=top;childLayout=stackLayout;horizontal=1;startSize=26;horizontalStack=0;resizeParent=1;resizeParentMax=0;resizeLast=0;collapsible=1;marginBottom=0;whiteSpace=wrap;html=1;" vertex="1" parent="WIyWlLk6GJQsqaUBKTNV-1">
          <mxGeometry x="260" y="920" width="230" height="112" as="geometry" />
        </mxCell>
        <mxCell id="9XlbqfiHmrKlPF3pGGkw-59" value="" style="line;strokeWidth=1;fillColor=none;align=left;verticalAlign=middle;spacingTop=-1;spacingLeft=3;spacingRight=3;rotatable=0;labelPosition=right;points=[];portConstraint=eastwest;strokeColor=inherit;" vertex="1" parent="9XlbqfiHmrKlPF3pGGkw-58">
          <mxGeometry y="26" width="230" height="8" as="geometry" />
        </mxCell>
        <mxCell id="9XlbqfiHmrKlPF3pGGkw-60" value="+ get_state(self, id: str)" style="text;strokeColor=none;fillColor=none;align=left;verticalAlign=top;spacingLeft=4;spacingRight=4;overflow=hidden;rotatable=0;points=[[0,0.5],[1,0.5]];portConstraint=eastwest;whiteSpace=wrap;html=1;" vertex="1" parent="9XlbqfiHmrKlPF3pGGkw-58">
          <mxGeometry y="34" width="230" height="26" as="geometry" />
        </mxCell>
        <mxCell id="9XlbqfiHmrKlPF3pGGkw-61" value="+ set_state(self, id: str, state: dict[])" style="text;strokeColor=none;fillColor=none;align=left;verticalAlign=top;spacingLeft=4;spacingRight=4;overflow=hidden;rotatable=0;points=[[0,0.5],[1,0.5]];portConstraint=eastwest;whiteSpace=wrap;html=1;" vertex="1" parent="9XlbqfiHmrKlPF3pGGkw-58">
          <mxGeometry y="60" width="230" height="26" as="geometry" />
        </mxCell>
        <mxCell id="9XlbqfiHmrKlPF3pGGkw-62" value="+ remove_state(self, id: str)" style="text;strokeColor=none;fillColor=none;align=left;verticalAlign=top;spacingLeft=4;spacingRight=4;overflow=hidden;rotatable=0;points=[[0,0.5],[1,0.5]];portConstraint=eastwest;whiteSpace=wrap;html=1;" vertex="1" parent="9XlbqfiHmrKlPF3pGGkw-58">
          <mxGeometry y="86" width="230" height="26" as="geometry" />
        </mxCell>
        <mxCell id="9XlbqfiHmrKlPF3pGGkw-63" value="CacheProvider" style="swimlane;fontStyle=1;align=center;verticalAlign=top;childLayout=stackLayout;horizontal=1;startSize=26;horizontalStack=0;resizeParent=1;resizeParentMax=0;resizeLast=0;collapsible=1;marginBottom=0;whiteSpace=wrap;html=1;" vertex="1" parent="WIyWlLk6GJQsqaUBKTNV-1">
          <mxGeometry x="530" y="920" width="300" height="86" as="geometry" />
        </mxCell>
        <mxCell id="9XlbqfiHmrKlPF3pGGkw-64" value="" style="line;strokeWidth=1;fillColor=none;align=left;verticalAlign=middle;spacingTop=-1;spacingLeft=3;spacingRight=3;rotatable=0;labelPosition=right;points=[];portConstraint=eastwest;strokeColor=inherit;" vertex="1" parent="9XlbqfiHmrKlPF3pGGkw-63">
          <mxGeometry y="26" width="300" height="8" as="geometry" />
        </mxCell>
        <mxCell id="9XlbqfiHmrKlPF3pGGkw-65" value="+ get_cached_command(self, key: dict)" style="text;strokeColor=none;fillColor=none;align=left;verticalAlign=top;spacingLeft=4;spacingRight=4;overflow=hidden;rotatable=0;points=[[0,0.5],[1,0.5]];portConstraint=eastwest;whiteSpace=wrap;html=1;" vertex="1" parent="9XlbqfiHmrKlPF3pGGkw-63">
          <mxGeometry y="34" width="300" height="26" as="geometry" />
        </mxCell>
        <mxCell id="9XlbqfiHmrKlPF3pGGkw-67" value="+ set_cached_command(self, key: dict, result: str)" style="text;strokeColor=none;fillColor=none;align=left;verticalAlign=top;spacingLeft=4;spacingRight=4;overflow=hidden;rotatable=0;points=[[0,0.5],[1,0.5]];portConstraint=eastwest;whiteSpace=wrap;html=1;" vertex="1" parent="9XlbqfiHmrKlPF3pGGkw-63">
          <mxGeometry y="60" width="300" height="26" as="geometry" />
        </mxCell>
        <mxCell id="9XlbqfiHmrKlPF3pGGkw-68" value="SampleProvider" style="swimlane;fontStyle=1;align=center;verticalAlign=top;childLayout=stackLayout;horizontal=1;startSize=26;horizontalStack=0;resizeParent=1;resizeParentMax=0;resizeLast=0;collapsible=1;marginBottom=0;whiteSpace=wrap;html=1;" vertex="1" parent="WIyWlLk6GJQsqaUBKTNV-1">
          <mxGeometry x="871" y="920" width="370" height="164" as="geometry" />
        </mxCell>
        <mxCell id="9XlbqfiHmrKlPF3pGGkw-69" value="" style="line;strokeWidth=1;fillColor=none;align=left;verticalAlign=middle;spacingTop=-1;spacingLeft=3;spacingRight=3;rotatable=0;labelPosition=right;points=[];portConstraint=eastwest;strokeColor=inherit;" vertex="1" parent="9XlbqfiHmrKlPF3pGGkw-68">
          <mxGeometry y="26" width="370" height="8" as="geometry" />
        </mxCell>
        <mxCell id="9XlbqfiHmrKlPF3pGGkw-70" value="+ get_sample(self)" style="text;strokeColor=none;fillColor=none;align=left;verticalAlign=top;spacingLeft=4;spacingRight=4;overflow=hidden;rotatable=0;points=[[0,0.5],[1,0.5]];portConstraint=eastwest;whiteSpace=wrap;html=1;" vertex="1" parent="9XlbqfiHmrKlPF3pGGkw-68">
          <mxGeometry y="34" width="370" height="26" as="geometry" />
        </mxCell>
        <mxCell id="9XlbqfiHmrKlPF3pGGkw-71" value="+ get_sample(self, id: str)" style="text;strokeColor=none;fillColor=none;align=left;verticalAlign=top;spacingLeft=4;spacingRight=4;overflow=hidden;rotatable=0;points=[[0,0.5],[1,0.5]];portConstraint=eastwest;whiteSpace=wrap;html=1;" vertex="1" parent="9XlbqfiHmrKlPF3pGGkw-68">
          <mxGeometry y="60" width="370" height="26" as="geometry" />
        </mxCell>
        <mxCell id="9XlbqfiHmrKlPF3pGGkw-72" value="+ create_sample(self, sample: SampleCommandCreate)" style="text;strokeColor=none;fillColor=none;align=left;verticalAlign=top;spacingLeft=4;spacingRight=4;overflow=hidden;rotatable=0;points=[[0,0.5],[1,0.5]];portConstraint=eastwest;whiteSpace=wrap;html=1;" vertex="1" parent="9XlbqfiHmrKlPF3pGGkw-68">
          <mxGeometry y="86" width="370" height="26" as="geometry" />
        </mxCell>
        <mxCell id="9XlbqfiHmrKlPF3pGGkw-73" value="+ update_sample(self, id: str, sample: SampleCommandCreate)" style="text;strokeColor=none;fillColor=none;align=left;verticalAlign=top;spacingLeft=4;spacingRight=4;overflow=hidden;rotatable=0;points=[[0,0.5],[1,0.5]];portConstraint=eastwest;whiteSpace=wrap;html=1;" vertex="1" parent="9XlbqfiHmrKlPF3pGGkw-68">
          <mxGeometry y="112" width="370" height="26" as="geometry" />
        </mxCell>
        <mxCell id="9XlbqfiHmrKlPF3pGGkw-74" value="+ remove_sample(self, id: str)" style="text;strokeColor=none;fillColor=none;align=left;verticalAlign=top;spacingLeft=4;spacingRight=4;overflow=hidden;rotatable=0;points=[[0,0.5],[1,0.5]];portConstraint=eastwest;whiteSpace=wrap;html=1;" vertex="1" parent="9XlbqfiHmrKlPF3pGGkw-68">
          <mxGeometry y="138" width="370" height="26" as="geometry" />
        </mxCell>
        <mxCell id="9XlbqfiHmrKlPF3pGGkw-75" value="" style="endArrow=open;endFill=1;endSize=12;html=1;rounded=0;" edge="1" parent="WIyWlLk6GJQsqaUBKTNV-1" source="9XlbqfiHmrKlPF3pGGkw-45" target="9XlbqfiHmrKlPF3pGGkw-36">
          <mxGeometry width="160" relative="1" as="geometry">
            <mxPoint x="460" y="1070" as="sourcePoint" />
            <mxPoint x="620" y="1070" as="targetPoint" />
          </mxGeometry>
        </mxCell>
        <mxCell id="9XlbqfiHmrKlPF3pGGkw-76" value="" style="endArrow=open;endFill=1;endSize=12;html=1;rounded=0;" edge="1" parent="WIyWlLk6GJQsqaUBKTNV-1" source="9XlbqfiHmrKlPF3pGGkw-53" target="9XlbqfiHmrKlPF3pGGkw-36">
          <mxGeometry width="160" relative="1" as="geometry">
            <mxPoint x="-2" y="1200" as="sourcePoint" />
            <mxPoint x="197" y="1026" as="targetPoint" />
          </mxGeometry>
        </mxCell>
        <mxCell id="9XlbqfiHmrKlPF3pGGkw-77" value="" style="endArrow=open;endFill=1;endSize=12;html=1;rounded=0;" edge="1" parent="WIyWlLk6GJQsqaUBKTNV-1" source="9XlbqfiHmrKlPF3pGGkw-58" target="9XlbqfiHmrKlPF3pGGkw-36">
          <mxGeometry width="160" relative="1" as="geometry">
            <mxPoint x="207" y="1200" as="sourcePoint" />
            <mxPoint x="277" y="1026" as="targetPoint" />
          </mxGeometry>
        </mxCell>
        <mxCell id="9XlbqfiHmrKlPF3pGGkw-78" value="" style="endArrow=open;endFill=1;endSize=12;html=1;rounded=0;" edge="1" parent="WIyWlLk6GJQsqaUBKTNV-1" source="9XlbqfiHmrKlPF3pGGkw-63" target="9XlbqfiHmrKlPF3pGGkw-36">
          <mxGeometry width="160" relative="1" as="geometry">
            <mxPoint x="416" y="1200" as="sourcePoint" />
            <mxPoint x="357" y="1026" as="targetPoint" />
          </mxGeometry>
        </mxCell>
        <mxCell id="9XlbqfiHmrKlPF3pGGkw-79" value="" style="endArrow=open;endFill=1;endSize=12;html=1;rounded=0;" edge="1" parent="WIyWlLk6GJQsqaUBKTNV-1" source="9XlbqfiHmrKlPF3pGGkw-68" target="9XlbqfiHmrKlPF3pGGkw-36">
          <mxGeometry width="160" relative="1" as="geometry">
            <mxPoint x="676" y="1200" as="sourcePoint" />
            <mxPoint x="456" y="1026" as="targetPoint" />
          </mxGeometry>
        </mxCell>
        <mxCell id="9XlbqfiHmrKlPF3pGGkw-80" value="MongoCacheProvider" style="swimlane;fontStyle=1;align=center;verticalAlign=top;childLayout=stackLayout;horizontal=1;startSize=26;horizontalStack=0;resizeParent=1;resizeParentMax=0;resizeLast=0;collapsible=1;marginBottom=0;whiteSpace=wrap;html=1;" vertex="1" parent="WIyWlLk6GJQsqaUBKTNV-1">
          <mxGeometry x="600" y="1180" width="160" height="112" as="geometry" />
        </mxCell>
        <mxCell id="9XlbqfiHmrKlPF3pGGkw-81" value="- client: MongoClient" style="text;strokeColor=none;fillColor=none;align=left;verticalAlign=top;spacingLeft=4;spacingRight=4;overflow=hidden;rotatable=0;points=[[0,0.5],[1,0.5]];portConstraint=eastwest;whiteSpace=wrap;html=1;" vertex="1" parent="9XlbqfiHmrKlPF3pGGkw-80">
          <mxGeometry y="26" width="160" height="26" as="geometry" />
        </mxCell>
        <mxCell id="9XlbqfiHmrKlPF3pGGkw-84" value="- collection: Collection" style="text;strokeColor=none;fillColor=none;align=left;verticalAlign=top;spacingLeft=4;spacingRight=4;overflow=hidden;rotatable=0;points=[[0,0.5],[1,0.5]];portConstraint=eastwest;whiteSpace=wrap;html=1;" vertex="1" parent="9XlbqfiHmrKlPF3pGGkw-80">
          <mxGeometry y="52" width="160" height="26" as="geometry" />
        </mxCell>
        <mxCell id="9XlbqfiHmrKlPF3pGGkw-82" value="" style="line;strokeWidth=1;fillColor=none;align=left;verticalAlign=middle;spacingTop=-1;spacingLeft=3;spacingRight=3;rotatable=0;labelPosition=right;points=[];portConstraint=eastwest;strokeColor=inherit;" vertex="1" parent="9XlbqfiHmrKlPF3pGGkw-80">
          <mxGeometry y="78" width="160" height="8" as="geometry" />
        </mxCell>
        <mxCell id="9XlbqfiHmrKlPF3pGGkw-83" value="+ __init__(self)" style="text;strokeColor=none;fillColor=none;align=left;verticalAlign=top;spacingLeft=4;spacingRight=4;overflow=hidden;rotatable=0;points=[[0,0.5],[1,0.5]];portConstraint=eastwest;whiteSpace=wrap;html=1;" vertex="1" parent="9XlbqfiHmrKlPF3pGGkw-80">
          <mxGeometry y="86" width="160" height="26" as="geometry" />
        </mxCell>
        <mxCell id="9XlbqfiHmrKlPF3pGGkw-85" value="MongoChatModelProvider" style="swimlane;fontStyle=1;align=center;verticalAlign=top;childLayout=stackLayout;horizontal=1;startSize=26;horizontalStack=0;resizeParent=1;resizeParentMax=0;resizeLast=0;collapsible=1;marginBottom=0;whiteSpace=wrap;html=1;" vertex="1" parent="WIyWlLk6GJQsqaUBKTNV-1">
          <mxGeometry x="-225" y="1180" width="160" height="112" as="geometry" />
        </mxCell>
        <mxCell id="9XlbqfiHmrKlPF3pGGkw-86" value="- client: MongoClient" style="text;strokeColor=none;fillColor=none;align=left;verticalAlign=top;spacingLeft=4;spacingRight=4;overflow=hidden;rotatable=0;points=[[0,0.5],[1,0.5]];portConstraint=eastwest;whiteSpace=wrap;html=1;" vertex="1" parent="9XlbqfiHmrKlPF3pGGkw-85">
          <mxGeometry y="26" width="160" height="26" as="geometry" />
        </mxCell>
        <mxCell id="9XlbqfiHmrKlPF3pGGkw-87" value="- collection: Collection" style="text;strokeColor=none;fillColor=none;align=left;verticalAlign=top;spacingLeft=4;spacingRight=4;overflow=hidden;rotatable=0;points=[[0,0.5],[1,0.5]];portConstraint=eastwest;whiteSpace=wrap;html=1;" vertex="1" parent="9XlbqfiHmrKlPF3pGGkw-85">
          <mxGeometry y="52" width="160" height="26" as="geometry" />
        </mxCell>
        <mxCell id="9XlbqfiHmrKlPF3pGGkw-88" value="" style="line;strokeWidth=1;fillColor=none;align=left;verticalAlign=middle;spacingTop=-1;spacingLeft=3;spacingRight=3;rotatable=0;labelPosition=right;points=[];portConstraint=eastwest;strokeColor=inherit;" vertex="1" parent="9XlbqfiHmrKlPF3pGGkw-85">
          <mxGeometry y="78" width="160" height="8" as="geometry" />
        </mxCell>
        <mxCell id="9XlbqfiHmrKlPF3pGGkw-89" value="+ __init__(self)" style="text;strokeColor=none;fillColor=none;align=left;verticalAlign=top;spacingLeft=4;spacingRight=4;overflow=hidden;rotatable=0;points=[[0,0.5],[1,0.5]];portConstraint=eastwest;whiteSpace=wrap;html=1;" vertex="1" parent="9XlbqfiHmrKlPF3pGGkw-85">
          <mxGeometry y="86" width="160" height="26" as="geometry" />
        </mxCell>
        <mxCell id="9XlbqfiHmrKlPF3pGGkw-92" value="Extends" style="endArrow=block;endSize=16;endFill=0;html=1;rounded=0;" edge="1" parent="WIyWlLk6GJQsqaUBKTNV-1" source="9XlbqfiHmrKlPF3pGGkw-85" target="9XlbqfiHmrKlPF3pGGkw-45">
          <mxGeometry width="160" relative="1" as="geometry">
            <mxPoint x="310" y="1040" as="sourcePoint" />
            <mxPoint x="470" y="1040" as="targetPoint" />
          </mxGeometry>
        </mxCell>
        <mxCell id="9XlbqfiHmrKlPF3pGGkw-93" value="MongoLockProvider" style="swimlane;fontStyle=1;align=center;verticalAlign=top;childLayout=stackLayout;horizontal=1;startSize=26;horizontalStack=0;resizeParent=1;resizeParentMax=0;resizeLast=0;collapsible=1;marginBottom=0;whiteSpace=wrap;html=1;" vertex="1" parent="WIyWlLk6GJQsqaUBKTNV-1">
          <mxGeometry x="60" y="1180" width="160" height="112" as="geometry" />
        </mxCell>
        <mxCell id="9XlbqfiHmrKlPF3pGGkw-94" value="- client: MongoClient" style="text;strokeColor=none;fillColor=none;align=left;verticalAlign=top;spacingLeft=4;spacingRight=4;overflow=hidden;rotatable=0;points=[[0,0.5],[1,0.5]];portConstraint=eastwest;whiteSpace=wrap;html=1;" vertex="1" parent="9XlbqfiHmrKlPF3pGGkw-93">
          <mxGeometry y="26" width="160" height="26" as="geometry" />
        </mxCell>
        <mxCell id="9XlbqfiHmrKlPF3pGGkw-95" value="- collection: Collection" style="text;strokeColor=none;fillColor=none;align=left;verticalAlign=top;spacingLeft=4;spacingRight=4;overflow=hidden;rotatable=0;points=[[0,0.5],[1,0.5]];portConstraint=eastwest;whiteSpace=wrap;html=1;" vertex="1" parent="9XlbqfiHmrKlPF3pGGkw-93">
          <mxGeometry y="52" width="160" height="26" as="geometry" />
        </mxCell>
        <mxCell id="9XlbqfiHmrKlPF3pGGkw-96" value="" style="line;strokeWidth=1;fillColor=none;align=left;verticalAlign=middle;spacingTop=-1;spacingLeft=3;spacingRight=3;rotatable=0;labelPosition=right;points=[];portConstraint=eastwest;strokeColor=inherit;" vertex="1" parent="9XlbqfiHmrKlPF3pGGkw-93">
          <mxGeometry y="78" width="160" height="8" as="geometry" />
        </mxCell>
        <mxCell id="9XlbqfiHmrKlPF3pGGkw-97" value="+ __init__(self)" style="text;strokeColor=none;fillColor=none;align=left;verticalAlign=top;spacingLeft=4;spacingRight=4;overflow=hidden;rotatable=0;points=[[0,0.5],[1,0.5]];portConstraint=eastwest;whiteSpace=wrap;html=1;" vertex="1" parent="9XlbqfiHmrKlPF3pGGkw-93">
          <mxGeometry y="86" width="160" height="26" as="geometry" />
        </mxCell>
        <mxCell id="9XlbqfiHmrKlPF3pGGkw-98" value="MongoStateProvider" style="swimlane;fontStyle=1;align=center;verticalAlign=top;childLayout=stackLayout;horizontal=1;startSize=26;horizontalStack=0;resizeParent=1;resizeParentMax=0;resizeLast=0;collapsible=1;marginBottom=0;whiteSpace=wrap;html=1;" vertex="1" parent="WIyWlLk6GJQsqaUBKTNV-1">
          <mxGeometry x="295" y="1180" width="160" height="112" as="geometry" />
        </mxCell>
        <mxCell id="9XlbqfiHmrKlPF3pGGkw-99" value="- client: MongoClient" style="text;strokeColor=none;fillColor=none;align=left;verticalAlign=top;spacingLeft=4;spacingRight=4;overflow=hidden;rotatable=0;points=[[0,0.5],[1,0.5]];portConstraint=eastwest;whiteSpace=wrap;html=1;" vertex="1" parent="9XlbqfiHmrKlPF3pGGkw-98">
          <mxGeometry y="26" width="160" height="26" as="geometry" />
        </mxCell>
        <mxCell id="9XlbqfiHmrKlPF3pGGkw-100" value="- collection: Collection" style="text;strokeColor=none;fillColor=none;align=left;verticalAlign=top;spacingLeft=4;spacingRight=4;overflow=hidden;rotatable=0;points=[[0,0.5],[1,0.5]];portConstraint=eastwest;whiteSpace=wrap;html=1;" vertex="1" parent="9XlbqfiHmrKlPF3pGGkw-98">
          <mxGeometry y="52" width="160" height="26" as="geometry" />
        </mxCell>
        <mxCell id="9XlbqfiHmrKlPF3pGGkw-101" value="" style="line;strokeWidth=1;fillColor=none;align=left;verticalAlign=middle;spacingTop=-1;spacingLeft=3;spacingRight=3;rotatable=0;labelPosition=right;points=[];portConstraint=eastwest;strokeColor=inherit;" vertex="1" parent="9XlbqfiHmrKlPF3pGGkw-98">
          <mxGeometry y="78" width="160" height="8" as="geometry" />
        </mxCell>
        <mxCell id="9XlbqfiHmrKlPF3pGGkw-102" value="+ __init__(self)" style="text;strokeColor=none;fillColor=none;align=left;verticalAlign=top;spacingLeft=4;spacingRight=4;overflow=hidden;rotatable=0;points=[[0,0.5],[1,0.5]];portConstraint=eastwest;whiteSpace=wrap;html=1;" vertex="1" parent="9XlbqfiHmrKlPF3pGGkw-98">
          <mxGeometry y="86" width="160" height="26" as="geometry" />
        </mxCell>
        <mxCell id="9XlbqfiHmrKlPF3pGGkw-103" value="MongoSampleProvider" style="swimlane;fontStyle=1;align=center;verticalAlign=top;childLayout=stackLayout;horizontal=1;startSize=26;horizontalStack=0;resizeParent=1;resizeParentMax=0;resizeLast=0;collapsible=1;marginBottom=0;whiteSpace=wrap;html=1;" vertex="1" parent="WIyWlLk6GJQsqaUBKTNV-1">
          <mxGeometry x="976" y="1180" width="160" height="112" as="geometry" />
        </mxCell>
        <mxCell id="9XlbqfiHmrKlPF3pGGkw-104" value="- client: MongoClient" style="text;strokeColor=none;fillColor=none;align=left;verticalAlign=top;spacingLeft=4;spacingRight=4;overflow=hidden;rotatable=0;points=[[0,0.5],[1,0.5]];portConstraint=eastwest;whiteSpace=wrap;html=1;" vertex="1" parent="9XlbqfiHmrKlPF3pGGkw-103">
          <mxGeometry y="26" width="160" height="26" as="geometry" />
        </mxCell>
        <mxCell id="9XlbqfiHmrKlPF3pGGkw-105" value="- collection: Collection" style="text;strokeColor=none;fillColor=none;align=left;verticalAlign=top;spacingLeft=4;spacingRight=4;overflow=hidden;rotatable=0;points=[[0,0.5],[1,0.5]];portConstraint=eastwest;whiteSpace=wrap;html=1;" vertex="1" parent="9XlbqfiHmrKlPF3pGGkw-103">
          <mxGeometry y="52" width="160" height="26" as="geometry" />
        </mxCell>
        <mxCell id="9XlbqfiHmrKlPF3pGGkw-106" value="" style="line;strokeWidth=1;fillColor=none;align=left;verticalAlign=middle;spacingTop=-1;spacingLeft=3;spacingRight=3;rotatable=0;labelPosition=right;points=[];portConstraint=eastwest;strokeColor=inherit;" vertex="1" parent="9XlbqfiHmrKlPF3pGGkw-103">
          <mxGeometry y="78" width="160" height="8" as="geometry" />
        </mxCell>
        <mxCell id="9XlbqfiHmrKlPF3pGGkw-107" value="+ __init__(self)" style="text;strokeColor=none;fillColor=none;align=left;verticalAlign=top;spacingLeft=4;spacingRight=4;overflow=hidden;rotatable=0;points=[[0,0.5],[1,0.5]];portConstraint=eastwest;whiteSpace=wrap;html=1;" vertex="1" parent="9XlbqfiHmrKlPF3pGGkw-103">
          <mxGeometry y="86" width="160" height="26" as="geometry" />
        </mxCell>
        <mxCell id="9XlbqfiHmrKlPF3pGGkw-108" value="Extends" style="endArrow=block;endSize=16;endFill=0;html=1;rounded=0;" edge="1" parent="WIyWlLk6GJQsqaUBKTNV-1" source="9XlbqfiHmrKlPF3pGGkw-93" target="9XlbqfiHmrKlPF3pGGkw-53">
          <mxGeometry width="160" relative="1" as="geometry">
            <mxPoint x="-343" y="1520" as="sourcePoint" />
            <mxPoint x="-325" y="1364" as="targetPoint" />
          </mxGeometry>
        </mxCell>
        <mxCell id="9XlbqfiHmrKlPF3pGGkw-109" value="Extends" style="endArrow=block;endSize=16;endFill=0;html=1;rounded=0;" edge="1" parent="WIyWlLk6GJQsqaUBKTNV-1" source="9XlbqfiHmrKlPF3pGGkw-98" target="9XlbqfiHmrKlPF3pGGkw-58">
          <mxGeometry width="160" relative="1" as="geometry">
            <mxPoint x="-54" y="1480" as="sourcePoint" />
            <mxPoint x="-34" y="1286" as="targetPoint" />
          </mxGeometry>
        </mxCell>
        <mxCell id="9XlbqfiHmrKlPF3pGGkw-110" value="Extends" style="endArrow=block;endSize=16;endFill=0;html=1;rounded=0;" edge="1" parent="WIyWlLk6GJQsqaUBKTNV-1" source="9XlbqfiHmrKlPF3pGGkw-80" target="9XlbqfiHmrKlPF3pGGkw-63">
          <mxGeometry width="160" relative="1" as="geometry">
            <mxPoint x="262" y="1474" as="sourcePoint" />
            <mxPoint x="227" y="1312" as="targetPoint" />
          </mxGeometry>
        </mxCell>
        <mxCell id="9XlbqfiHmrKlPF3pGGkw-111" value="Extends" style="endArrow=block;endSize=16;endFill=0;html=1;rounded=0;" edge="1" parent="WIyWlLk6GJQsqaUBKTNV-1" source="9XlbqfiHmrKlPF3pGGkw-103" target="9XlbqfiHmrKlPF3pGGkw-68">
          <mxGeometry width="160" relative="1" as="geometry">
            <mxPoint x="478" y="1470" as="sourcePoint" />
            <mxPoint x="504" y="1286" as="targetPoint" />
          </mxGeometry>
        </mxCell>
        <mxCell id="9XlbqfiHmrKlPF3pGGkw-112" value="Extends" style="endArrow=block;endSize=16;endFill=0;html=1;rounded=0;" edge="1" parent="WIyWlLk6GJQsqaUBKTNV-1" source="9XlbqfiHmrKlPF3pGGkw-113" target="9XlbqfiHmrKlPF3pGGkw-117">
          <mxGeometry width="160" relative="1" as="geometry">
            <mxPoint x="-170" y="564" as="sourcePoint" />
            <mxPoint x="-144" y="380" as="targetPoint" />
          </mxGeometry>
        </mxCell>
        <mxCell id="9XlbqfiHmrKlPF3pGGkw-113" value="Neo4JStoreAdapter" style="swimlane;fontStyle=1;align=center;verticalAlign=top;childLayout=stackLayout;horizontal=1;startSize=26;horizontalStack=0;resizeParent=1;resizeParentMax=0;resizeLast=0;collapsible=1;marginBottom=0;whiteSpace=wrap;html=1;" vertex="1" parent="WIyWlLk6GJQsqaUBKTNV-1">
          <mxGeometry x="350" y="-209" width="385" height="138" as="geometry" />
        </mxCell>
        <mxCell id="9XlbqfiHmrKlPF3pGGkw-115" value="" style="line;strokeWidth=1;fillColor=none;align=left;verticalAlign=middle;spacingTop=-1;spacingLeft=3;spacingRight=3;rotatable=0;labelPosition=right;points=[];portConstraint=eastwest;strokeColor=inherit;" vertex="1" parent="9XlbqfiHmrKlPF3pGGkw-113">
          <mxGeometry y="26" width="385" height="8" as="geometry" />
        </mxCell>
        <mxCell id="9XlbqfiHmrKlPF3pGGkw-2" value="- node_property_values(node_name: str, property_name: str)" style="text;strokeColor=none;fillColor=none;align=left;verticalAlign=top;spacingLeft=4;spacingRight=4;overflow=hidden;rotatable=0;points=[[0,0.5],[1,0.5]];portConstraint=eastwest;whiteSpace=wrap;html=1;" vertex="1" parent="9XlbqfiHmrKlPF3pGGkw-113">
          <mxGeometry y="34" width="385" height="26" as="geometry" />
        </mxCell>
        <mxCell id="9XlbqfiHmrKlPF3pGGkw-1" value="- database_schema()" style="text;strokeColor=none;fillColor=none;align=left;verticalAlign=top;spacingLeft=4;spacingRight=4;overflow=hidden;rotatable=0;points=[[0,0.5],[1,0.5]];portConstraint=eastwest;whiteSpace=wrap;html=1;" vertex="1" parent="9XlbqfiHmrKlPF3pGGkw-113">
          <mxGeometry y="60" width="385" height="26" as="geometry" />
        </mxCell>
        <mxCell id="9XlbqfiHmrKlPF3pGGkw-3" value="- sample_nodes(node_name: str, count: int)" style="text;strokeColor=none;fillColor=none;align=left;verticalAlign=top;spacingLeft=4;spacingRight=4;overflow=hidden;rotatable=0;points=[[0,0.5],[1,0.5]];portConstraint=eastwest;whiteSpace=wrap;html=1;" vertex="1" parent="9XlbqfiHmrKlPF3pGGkw-113">
          <mxGeometry y="86" width="385" height="26" as="geometry" />
        </mxCell>
        <mxCell id="9XlbqfiHmrKlPF3pGGkw-4" value="- cypher_query(cypher: str)" style="text;strokeColor=none;fillColor=none;align=left;verticalAlign=top;spacingLeft=4;spacingRight=4;overflow=hidden;rotatable=0;points=[[0,0.5],[1,0.5]];portConstraint=eastwest;whiteSpace=wrap;html=1;" vertex="1" parent="9XlbqfiHmrKlPF3pGGkw-113">
          <mxGeometry y="112" width="385" height="26" as="geometry" />
        </mxCell>
        <mxCell id="9XlbqfiHmrKlPF3pGGkw-117" value="AgentAdapter" style="swimlane;fontStyle=1;align=center;verticalAlign=top;childLayout=stackLayout;horizontal=1;startSize=26;horizontalStack=0;resizeParent=1;resizeParentMax=0;resizeLast=0;collapsible=1;marginBottom=0;whiteSpace=wrap;html=1;" vertex="1" parent="WIyWlLk6GJQsqaUBKTNV-1">
          <mxGeometry x="955" y="-170" width="290" height="60" as="geometry" />
        </mxCell>
        <mxCell id="9XlbqfiHmrKlPF3pGGkw-119" value="" style="line;strokeWidth=1;fillColor=none;align=left;verticalAlign=middle;spacingTop=-1;spacingLeft=3;spacingRight=3;rotatable=0;labelPosition=right;points=[];portConstraint=eastwest;strokeColor=inherit;" vertex="1" parent="9XlbqfiHmrKlPF3pGGkw-117">
          <mxGeometry y="26" width="290" height="8" as="geometry" />
        </mxCell>
        <mxCell id="9XlbqfiHmrKlPF3pGGkw-0" value="+ __init__(self, agent: Agent)" style="text;strokeColor=none;fillColor=none;align=left;verticalAlign=top;spacingLeft=4;spacingRight=4;overflow=hidden;rotatable=0;points=[[0,0.5],[1,0.5]];portConstraint=eastwest;whiteSpace=wrap;html=1;" vertex="1" parent="9XlbqfiHmrKlPF3pGGkw-117">
          <mxGeometry y="34" width="290" height="26" as="geometry" />
        </mxCell>
        <mxCell id="9XlbqfiHmrKlPF3pGGkw-121" value="Neo4JSampleAdapter" style="swimlane;fontStyle=1;align=center;verticalAlign=top;childLayout=stackLayout;horizontal=1;startSize=26;horizontalStack=0;resizeParent=1;resizeParentMax=0;resizeLast=0;collapsible=1;marginBottom=0;whiteSpace=wrap;html=1;" vertex="1" parent="WIyWlLk6GJQsqaUBKTNV-1">
          <mxGeometry x="1380" y="-170" width="160" height="60" as="geometry" />
        </mxCell>
        <mxCell id="9XlbqfiHmrKlPF3pGGkw-123" value="" style="line;strokeWidth=1;fillColor=none;align=left;verticalAlign=middle;spacingTop=-1;spacingLeft=3;spacingRight=3;rotatable=0;labelPosition=right;points=[];portConstraint=eastwest;strokeColor=inherit;" vertex="1" parent="9XlbqfiHmrKlPF3pGGkw-121">
          <mxGeometry y="26" width="160" height="8" as="geometry" />
        </mxCell>
        <mxCell id="9XlbqfiHmrKlPF3pGGkw-5" value="- sample_queries()" style="text;strokeColor=none;fillColor=none;align=left;verticalAlign=top;spacingLeft=4;spacingRight=4;overflow=hidden;rotatable=0;points=[[0,0.5],[1,0.5]];portConstraint=eastwest;whiteSpace=wrap;html=1;" vertex="1" parent="9XlbqfiHmrKlPF3pGGkw-121">
          <mxGeometry y="34" width="160" height="26" as="geometry" />
        </mxCell>
        <mxCell id="9XlbqfiHmrKlPF3pGGkw-125" value="Extends" style="endArrow=block;endSize=16;endFill=0;html=1;rounded=0;" edge="1" parent="WIyWlLk6GJQsqaUBKTNV-1" source="9XlbqfiHmrKlPF3pGGkw-121" target="9XlbqfiHmrKlPF3pGGkw-117">
          <mxGeometry width="160" relative="1" as="geometry">
            <mxPoint x="104" y="450" as="sourcePoint" />
            <mxPoint x="155" y="290" as="targetPoint" />
          </mxGeometry>
        </mxCell>
        <mxCell id="9XlbqfiHmrKlPF3pGGkw-126" value="LLMProvider" style="swimlane;fontStyle=1;align=center;verticalAlign=top;childLayout=stackLayout;horizontal=1;startSize=26;horizontalStack=0;resizeParent=1;resizeParentMax=0;resizeLast=0;collapsible=1;marginBottom=0;whiteSpace=wrap;html=1;" vertex="1" parent="WIyWlLk6GJQsqaUBKTNV-1">
          <mxGeometry x="1590" y="556" width="400" height="164" as="geometry" />
        </mxCell>
        <mxCell id="9XlbqfiHmrKlPF3pGGkw-127" value="- db_provider: DBProvider" style="text;strokeColor=none;fillColor=none;align=left;verticalAlign=top;spacingLeft=4;spacingRight=4;overflow=hidden;rotatable=0;points=[[0,0.5],[1,0.5]];portConstraint=eastwest;whiteSpace=wrap;html=1;" vertex="1" parent="9XlbqfiHmrKlPF3pGGkw-126">
          <mxGeometry y="26" width="400" height="26" as="geometry" />
        </mxCell>
        <mxCell id="9XlbqfiHmrKlPF3pGGkw-130" value="- agent: Agent" style="text;strokeColor=none;fillColor=none;align=left;verticalAlign=top;spacingLeft=4;spacingRight=4;overflow=hidden;rotatable=0;points=[[0,0.5],[1,0.5]];portConstraint=eastwest;whiteSpace=wrap;html=1;" vertex="1" parent="9XlbqfiHmrKlPF3pGGkw-126">
          <mxGeometry y="52" width="400" height="26" as="geometry" />
        </mxCell>
        <mxCell id="9XlbqfiHmrKlPF3pGGkw-131" value="- id: str" style="text;strokeColor=none;fillColor=none;align=left;verticalAlign=top;spacingLeft=4;spacingRight=4;overflow=hidden;rotatable=0;points=[[0,0.5],[1,0.5]];portConstraint=eastwest;whiteSpace=wrap;html=1;" vertex="1" parent="9XlbqfiHmrKlPF3pGGkw-126">
          <mxGeometry y="78" width="400" height="26" as="geometry" />
        </mxCell>
        <mxCell id="9XlbqfiHmrKlPF3pGGkw-128" value="" style="line;strokeWidth=1;fillColor=none;align=left;verticalAlign=middle;spacingTop=-1;spacingLeft=3;spacingRight=3;rotatable=0;labelPosition=right;points=[];portConstraint=eastwest;strokeColor=inherit;" vertex="1" parent="9XlbqfiHmrKlPF3pGGkw-126">
          <mxGeometry y="104" width="400" height="8" as="geometry" />
        </mxCell>
        <mxCell id="9XlbqfiHmrKlPF3pGGkw-129" value="+ __init__(self, db_provider: DBProvider, agent: Agent, id: str)" style="text;strokeColor=none;fillColor=none;align=left;verticalAlign=top;spacingLeft=4;spacingRight=4;overflow=hidden;rotatable=0;points=[[0,0.5],[1,0.5]];portConstraint=eastwest;whiteSpace=wrap;html=1;" vertex="1" parent="9XlbqfiHmrKlPF3pGGkw-126">
          <mxGeometry y="112" width="400" height="26" as="geometry" />
        </mxCell>
        <mxCell id="9XlbqfiHmrKlPF3pGGkw-132" value="+ send_message(self, text: str)" style="text;strokeColor=none;fillColor=none;align=left;verticalAlign=top;spacingLeft=4;spacingRight=4;overflow=hidden;rotatable=0;points=[[0,0.5],[1,0.5]];portConstraint=eastwest;whiteSpace=wrap;html=1;" vertex="1" parent="9XlbqfiHmrKlPF3pGGkw-126">
          <mxGeometry y="138" width="400" height="26" as="geometry" />
        </mxCell>
        <mxCell id="9XlbqfiHmrKlPF3pGGkw-133" value="GeminiLLMProvider" style="swimlane;fontStyle=1;align=center;verticalAlign=top;childLayout=stackLayout;horizontal=1;startSize=26;horizontalStack=0;resizeParent=1;resizeParentMax=0;resizeLast=0;collapsible=1;marginBottom=0;whiteSpace=wrap;html=1;" vertex="1" parent="WIyWlLk6GJQsqaUBKTNV-1">
          <mxGeometry x="1330" y="870" width="615" height="112" as="geometry" />
        </mxCell>
        <mxCell id="9XlbqfiHmrKlPF3pGGkw-134" value="- client: GenaiClient" style="text;strokeColor=none;fillColor=none;align=left;verticalAlign=top;spacingLeft=4;spacingRight=4;overflow=hidden;rotatable=0;points=[[0,0.5],[1,0.5]];portConstraint=eastwest;whiteSpace=wrap;html=1;" vertex="1" parent="9XlbqfiHmrKlPF3pGGkw-133">
          <mxGeometry y="26" width="615" height="26" as="geometry" />
        </mxCell>
        <mxCell id="9XlbqfiHmrKlPF3pGGkw-135" value="" style="line;strokeWidth=1;fillColor=none;align=left;verticalAlign=middle;spacingTop=-1;spacingLeft=3;spacingRight=3;rotatable=0;labelPosition=right;points=[];portConstraint=eastwest;strokeColor=inherit;" vertex="1" parent="9XlbqfiHmrKlPF3pGGkw-133">
          <mxGeometry y="52" width="615" height="8" as="geometry" />
        </mxCell>
        <mxCell id="9XlbqfiHmrKlPF3pGGkw-136" value="- _to_gemini_data_type(self, data_type: str)" style="text;strokeColor=none;fillColor=none;align=left;verticalAlign=top;spacingLeft=4;spacingRight=4;overflow=hidden;rotatable=0;points=[[0,0.5],[1,0.5]];portConstraint=eastwest;whiteSpace=wrap;html=1;" vertex="1" parent="9XlbqfiHmrKlPF3pGGkw-133">
          <mxGeometry y="60" width="615" height="26" as="geometry" />
        </mxCell>
        <mxCell id="9XlbqfiHmrKlPF3pGGkw-137" value="- _send_gemini_message(self, chat: Chat, state: Content[], text: str, function_responses: FunctionResponse[])" style="text;strokeColor=none;fillColor=none;align=left;verticalAlign=top;spacingLeft=4;spacingRight=4;overflow=hidden;rotatable=0;points=[[0,0.5],[1,0.5]];portConstraint=eastwest;whiteSpace=wrap;html=1;" vertex="1" parent="9XlbqfiHmrKlPF3pGGkw-133">
          <mxGeometry y="86" width="615" height="26" as="geometry" />
        </mxCell>
        <mxCell id="9XlbqfiHmrKlPF3pGGkw-138" value="Extends" style="endArrow=block;endSize=16;endFill=0;html=1;rounded=0;" edge="1" parent="WIyWlLk6GJQsqaUBKTNV-1" source="9XlbqfiHmrKlPF3pGGkw-133" target="9XlbqfiHmrKlPF3pGGkw-126">
          <mxGeometry width="160" relative="1" as="geometry">
            <mxPoint x="884" y="1450" as="sourcePoint" />
            <mxPoint x="890" y="1364" as="targetPoint" />
          </mxGeometry>
        </mxCell>
        <mxCell id="9XlbqfiHmrKlPF3pGGkw-139" value="DeepseekLLMProvider" style="swimlane;fontStyle=1;align=center;verticalAlign=top;childLayout=stackLayout;horizontal=1;startSize=26;horizontalStack=0;resizeParent=1;resizeParentMax=0;resizeLast=0;collapsible=1;marginBottom=0;whiteSpace=wrap;html=1;" vertex="1" parent="WIyWlLk6GJQsqaUBKTNV-1">
          <mxGeometry x="1980" y="870" width="640" height="112" as="geometry" />
        </mxCell>
        <mxCell id="9XlbqfiHmrKlPF3pGGkw-140" value="- client: OpenAIClient" style="text;strokeColor=none;fillColor=none;align=left;verticalAlign=top;spacingLeft=4;spacingRight=4;overflow=hidden;rotatable=0;points=[[0,0.5],[1,0.5]];portConstraint=eastwest;whiteSpace=wrap;html=1;" vertex="1" parent="9XlbqfiHmrKlPF3pGGkw-139">
          <mxGeometry y="26" width="640" height="26" as="geometry" />
        </mxCell>
        <mxCell id="9XlbqfiHmrKlPF3pGGkw-141" value="" style="line;strokeWidth=1;fillColor=none;align=left;verticalAlign=middle;spacingTop=-1;spacingLeft=3;spacingRight=3;rotatable=0;labelPosition=right;points=[];portConstraint=eastwest;strokeColor=inherit;" vertex="1" parent="9XlbqfiHmrKlPF3pGGkw-139">
          <mxGeometry y="52" width="640" height="8" as="geometry" />
        </mxCell>
        <mxCell id="9XlbqfiHmrKlPF3pGGkw-142" value="- _to_deepseek_data_type(self, data_type: str)" style="text;strokeColor=none;fillColor=none;align=left;verticalAlign=top;spacingLeft=4;spacingRight=4;overflow=hidden;rotatable=0;points=[[0,0.5],[1,0.5]];portConstraint=eastwest;whiteSpace=wrap;html=1;" vertex="1" parent="9XlbqfiHmrKlPF3pGGkw-139">
          <mxGeometry y="60" width="640" height="26" as="geometry" />
        </mxCell>
        <mxCell id="9XlbqfiHmrKlPF3pGGkw-143" value="- _send_deepseek_message(self, state: dict[], text: str, function_responses: ChatCompletionToolMessageParam[]" style="text;strokeColor=none;fillColor=none;align=left;verticalAlign=top;spacingLeft=4;spacingRight=4;overflow=hidden;rotatable=0;points=[[0,0.5],[1,0.5]];portConstraint=eastwest;whiteSpace=wrap;html=1;" vertex="1" parent="9XlbqfiHmrKlPF3pGGkw-139">
          <mxGeometry y="86" width="640" height="26" as="geometry" />
        </mxCell>
        <mxCell id="9XlbqfiHmrKlPF3pGGkw-144" value="Extends" style="endArrow=block;endSize=16;endFill=0;html=1;rounded=0;" edge="1" parent="WIyWlLk6GJQsqaUBKTNV-1" source="9XlbqfiHmrKlPF3pGGkw-139" target="9XlbqfiHmrKlPF3pGGkw-126">
          <mxGeometry width="160" relative="1" as="geometry">
            <mxPoint x="1574" y="1088" as="sourcePoint" />
            <mxPoint x="1667" y="944" as="targetPoint" />
          </mxGeometry>
        </mxCell>
        <mxCell id="9XlbqfiHmrKlPF3pGGkw-145" value="" style="endArrow=open;endFill=1;endSize=12;html=1;rounded=0;" edge="1" parent="WIyWlLk6GJQsqaUBKTNV-1" source="9XlbqfiHmrKlPF3pGGkw-117" target="9XlbqfiHmrKlPF3pGGkw-6">
          <mxGeometry width="160" relative="1" as="geometry">
            <mxPoint x="580" y="60" as="sourcePoint" />
            <mxPoint x="740" y="60" as="targetPoint" />
          </mxGeometry>
        </mxCell>
        <mxCell id="9XlbqfiHmrKlPF3pGGkw-146" value="" style="endArrow=open;endFill=1;endSize=12;html=1;rounded=0;" edge="1" parent="WIyWlLk6GJQsqaUBKTNV-1" source="9XlbqfiHmrKlPF3pGGkw-6" target="9XlbqfiHmrKlPF3pGGkw-36">
          <mxGeometry width="160" relative="1" as="geometry">
            <mxPoint x="670" y="480" as="sourcePoint" />
            <mxPoint x="830" y="480" as="targetPoint" />
          </mxGeometry>
        </mxCell>
        <mxCell id="9XlbqfiHmrKlPF3pGGkw-148" value="" style="endArrow=open;endFill=1;endSize=12;html=1;rounded=0;" edge="1" parent="WIyWlLk6GJQsqaUBKTNV-1" source="9XlbqfiHmrKlPF3pGGkw-14" target="9XlbqfiHmrKlPF3pGGkw-126">
          <mxGeometry width="160" relative="1" as="geometry">
            <mxPoint x="1600" y="239" as="sourcePoint" />
            <mxPoint x="1400" y="235" as="targetPoint" />
          </mxGeometry>
        </mxCell>
        <mxCell id="9XlbqfiHmrKlPF3pGGkw-149" value="" style="endArrow=open;endFill=1;endSize=12;html=1;rounded=0;" edge="1" parent="WIyWlLk6GJQsqaUBKTNV-1" source="9XlbqfiHmrKlPF3pGGkw-126" target="9XlbqfiHmrKlPF3pGGkw-36">
          <mxGeometry width="160" relative="1" as="geometry">
            <mxPoint x="986" y="338" as="sourcePoint" />
            <mxPoint x="444" y="810" as="targetPoint" />
          </mxGeometry>
        </mxCell>
      </root>
    </mxGraphModel>
  </diagram>
</mxfile>
